# xmcd
#
# Track frame offsets: 
#        150
#        29770
#        48040
#        77637
#        94320
#        116957
#        152645
#        170000
#        195542
#        214525
#
# Disc length: 3123 seconds
#
# Revision: 2
# Processed by: cddbd v1.5.2PL0 Copyright (c) Steve Scherf et al.
# Submitted via: ExactAudioCopyFreeDBPlugin 1.0
#
DISCID=830c310a
DTITLE=Duke Levine - Country Soul Guitar
DYEAR=1994
DGENRE=Country
TTITLE0=I Think It's Going To Work Out Fine
TTITLE1=Roundup Serenade
TTITLE2=Deep Blue (Sometimes Green)
TTITLE3=Nashville Skyline Rag
TTITLE4=Soul Miner
TTITLE5=Low Lonesome
TTITLE6=New Suit
TTITLE7=Mr. John
TTITLE8=Bud's Bounce
TTITLE9=Waltz of the Titans
EXTD=
EXTT0=
EXTT1=
EXTT2=
EXTT3=
EXTT4=
EXTT5=
EXTT6=
EXTT7=
EXTT8=
EXTT9=
PLAYORDER=
